<?xml version="1.0" encoding="UTF-8" standalone="no"?>
<!-- Generator: Adobe Illustrator 18.0.0, SVG Export Plug-In . SVG Version: 6.00 Build 0)  -->

<svg
   version="1.1"
   id="Capa_1"
   x="0px"
   y="0px"
   viewBox="0 0 64 64"
   xml:space="preserve"
   sodipodi:docname="remove.svg"
   width="64"
   height="64"
   inkscape:version="1.2.2 (b0a84865, 2022-12-01)"
   xmlns:inkscape="http://www.inkscape.org/namespaces/inkscape"
   xmlns:sodipodi="http://sodipodi.sourceforge.net/DTD/sodipodi-0.dtd"
   xmlns="http://www.w3.org/2000/svg"
   xmlns:svg="http://www.w3.org/2000/svg"><defs
   id="defs171">
	
	
</defs><sodipodi:namedview
   id="namedview169"
   pagecolor="#ffffff"
   bordercolor="#000000"
   borderopacity="0.25"
   inkscape:showpageshadow="2"
   inkscape:pageopacity="0.0"
   inkscape:pagecheckerboard="true"
   inkscape:deskcolor="#d1d1d1"
   showgrid="false"
   inkscape:zoom="5.7212121"
   inkscape:cx="41.949153"
   inkscape:cy="42.036547"
   inkscape:window-width="1567"
   inkscape:window-height="969"
   inkscape:window-x="0"
   inkscape:window-y="25"
   inkscape:window-maximized="0"
   inkscape:current-layer="Capa_1" />















<path
   d="M 54.638032,9.3727033 C 48.591237,3.3285823 40.551546,5e-7 31.999806,5e-7 23.448453,5e-7 15.408762,3.3285823 9.3619674,9.3727033 -3.1206553,21.8496 -3.1206553,42.150593 9.3619674,54.62749 15.408762,60.671417 23.448453,64 32,64 c 8.551546,0 16.591237,-3.328582 22.638032,-9.372704 12.482623,-12.476703 12.482623,-32.77789 0,-45.2545927 z M 50.522238,50.513455 C 45.574631,55.458326 38.996772,58.181817 32,58.181817 c -6.996773,0 -13.574632,-2.723491 -18.522239,-7.668362 -10.2130366,-10.208388 -10.2130366,-26.818327 0,-37.026716 4.947607,-4.9452599 11.525466,-7.6685568 18.522045,-7.6685568 6.996772,0 13.574631,2.7232969 18.522238,7.6683628 10.213037,10.208388 10.213037,26.818521 1.94e-4,37.02691 z"
   id="path132"
   style="stroke-width:0.193985" /><path
   d="m 49.46273,29.090909 c -9.474121,-6e-5 -23.601956,-2.2e-5 -34.92546,0 -1.607356,0 -2.910471,1.302497 -2.910471,2.909091 0,1.606594 1.303115,2.909091 2.910471,2.909091 19.786839,0 24.650899,2.1e-5 34.92546,0 1.607356,0 2.910471,-1.302497 2.910471,-2.909091 0,-1.606594 -1.302921,-2.909091 -2.910471,-2.909091 z"
   id="path134"
   style="stroke-width:0.193985"
   sodipodi:nodetypes="ccsccsc" /></svg>
