<?xml version="1.0" encoding="UTF-8" standalone="no"?>
<!-- Generator: Adobe Illustrator 16.0.0, SVG Export Plug-In . SVG Version: 6.00 Build 0)  -->

<svg
   version="1.1"
   id="Capa_1"
   x="0px"
   y="0px"
   width="64"
   height="64"
   viewBox="0 0 64.000002 64.000002"
   xml:space="preserve"
   sodipodi:docname="dock-float.svg"
   inkscape:version="1.2.1 (9c6d41e, 2022-07-14)"
   xmlns:inkscape="http://www.inkscape.org/namespaces/inkscape"
   xmlns:sodipodi="http://sodipodi.sourceforge.net/DTD/sodipodi-0.dtd"
   xmlns="http://www.w3.org/2000/svg"
   xmlns:svg="http://www.w3.org/2000/svg"><defs
   id="defs2572" /><sodipodi:namedview
   id="namedview2570"
   pagecolor="#ffffff"
   bordercolor="#000000"
   borderopacity="0.25"
   inkscape:showpageshadow="2"
   inkscape:pageopacity="0.0"
   inkscape:pagecheckerboard="true"
   inkscape:deskcolor="#d1d1d1"
   showgrid="false"
   inkscape:zoom="6.3585939"
   inkscape:cx="12.188229"
   inkscape:cy="53.077772"
   inkscape:window-width="1309"
   inkscape:window-height="961"
   inkscape:window-x="0"
   inkscape:window-y="25"
   inkscape:window-maximized="0"
   inkscape:current-layer="Capa_1" />
<path
   d="M 6.2764678,63.353785 H 49.132738 c 3.46091,0 6.276576,-2.815666 6.276576,-6.276576 v -2.578274 h 2.31411 C 61.184334,54.498935 64,51.683269 64,48.222359 V 6.922683 C 64,3.4617733 61.184334,0.646215 57.723424,0.646215 h -42.85627 c -3.46091,0 -6.2764681,2.8156662 -6.2764681,6.276468 V 9.501065 H 6.2764678 C 2.8156662,9.501065 0,12.316731 0,15.777533 v 41.299784 c 0,3.460802 2.8156662,6.276468 6.2764678,6.276468 z M 50.784548,54.499043 v 2.578274 c 0,0.912323 -0.739703,1.65181 -1.65181,1.65181 H 6.2764678 c -0.9122145,0 -1.6517021,-0.739487 -1.6517021,-1.65181 V 25.774001 H 8.5905779 13.215344 50.78444 v 24.100276 4.624766 z m -1.65181,-40.373212 c 0.912107,0 1.65181,0.739488 1.65181,1.651702 v 5.371702 H 13.215452 8.5906859 4.6247657 v -5.371702 c 0,-0.912214 0.7394876,-1.651702 1.6517021,-1.651702 H 8.5906859 13.215452 Z M 13.215452,6.922683 c 0,-0.912215 0.739487,-1.651702 1.651702,-1.651702 h 42.856162 c 0.912107,0 1.651594,0.739487 1.651594,1.651702 v 41.299892 c 0,0.912107 -0.739487,1.651594 -1.651594,1.651594 h -2.31411 V 15.777533 c 0,-3.460802 -2.815666,-6.276468 -6.276576,-6.276468 H 13.215452 Z"
   id="path2529"
   style="display:inline;stroke-width:0.107954;fill:#000000;fill-opacity:1" />















</svg>
