<?xml version="1.0" encoding="UTF-8" standalone="no"?>
<!DOCTYPE svg PUBLIC "-//W3C//DTD SVG 1.1//EN" "http://www.w3.org/Graphics/SVG/1.1/DTD/svg11.dtd">
<svg width="100%" height="100%" viewBox="0 0 1024 1024" version="1.1" xmlns="http://www.w3.org/2000/svg" xmlns:xlink="http://www.w3.org/1999/xlink" xml:space="preserve" xmlns:serif="http://www.serif.com/" style="fill-rule:evenodd;clip-rule:evenodd;stroke-linejoin:round;stroke-miterlimit:2;">
    <g id="Pencil" transform="matrix(1.79687,5.98115e-17,-5.98115e-17,1.79687,52,52)">
        <path d="M393.29,213.665L142.441,464.524L87.044,424.954L345.817,150.364L393.29,213.665Z" style="fill:rgb(255,157,73);fill-rule:nonzero;"/>
        <path d="M353.73,158.277L87.044,424.954L47.473,369.557L298.333,118.708L353.73,158.277Z" style="fill:rgb(255,204,117);fill-rule:nonzero;"/>
        <path d="M512,94.965L440.78,166.185L377.475,118.708L464.522,47.486L512,94.965Z" style="fill:rgb(189,21,21);fill-rule:nonzero;"/>
        <path d="M464.516,47.482L385.382,126.615L345.817,71.224L417.038,0.002L464.516,47.482Z" style="fill:rgb(242,72,75);fill-rule:nonzero;"/>
        <g transform="matrix(-0.7071,0.7071,-0.7071,-0.7071,731.584,-18.1559)">
            <rect x="335.974" y="75.292" width="67.157" height="134.292" style="fill:rgb(8,41,71);"/>
        </g>
        <path d="M71.22,488.261L0,511.998L23.736,440.776L63.305,448.692L71.22,488.261Z" style="fill:rgb(8,41,71);fill-rule:nonzero;"/>
        <path d="M47.473,369.557L23.736,440.776L71.22,488.261L142.441,464.524L47.473,369.557Z" style="fill:rgb(242,235,217);fill-rule:nonzero;"/>
    </g>
    <g transform="matrix(11.9655,0,0,11.9655,451.5,457.778)">
        <g transform="matrix(0.0749354,0,0,0.0972932,-27.1266,-49.4954)">
            <ellipse cx="655.5" cy="778.5" rx="216.5" ry="152.5" style="fill:white;"/>
        </g>
        <ellipse cx="21.75" cy="30.04" rx="2.248" ry="0.899" style="fill:rgb(8,41,71);stroke:rgb(8,41,71);stroke-width:0.08px;"/>
        <path d="M43.5,18.228C43.5,17.278 43.493,15.332 37.999,14.028L38,3.028C38,2.257 37.646,1.531 37.038,1.057C36.43,0.581 35.639,0.413 34.892,0.603L21.75,3.9L8.607,0.603C7.859,0.414 7.068,0.582 6.461,1.057C5.855,1.531 5.5,2.256 5.5,3.027L5.5,14.028C0.007,15.332 0,17.277 0,18.228C0,19.609 1.119,20.728 2.5,20.728L4.57,20.728C4.441,21.417 4.341,22.111 4.265,22.768C2.894,23.922 2.015,25.697 2.015,27.681C2.015,30.468 3.751,32.838 6.152,33.668C9.177,39.328 15.152,42.975 21.777,42.975C28.408,42.975 34.393,39.319 37.417,33.646C39.781,32.793 41.484,30.443 41.484,27.681C41.484,25.728 40.63,23.979 39.296,22.822C39.223,22.152 39.118,21.441 38.984,20.73L41,20.73C42.381,20.728 43.5,19.608 43.5,18.228ZM32.947,23.354C32.925,23.18 32.871,23.012 32.761,22.87C32.572,22.624 32.279,22.479 31.966,22.479L24.466,22.479C24.155,22.479 23.862,22.624 23.673,22.87C23.566,23.015 23.511,23.182 23.485,23.354L20.006,23.354C19.984,23.18 19.931,23.012 19.82,22.87C19.631,22.624 19.338,22.479 19.026,22.479L11.526,22.479C11.215,22.479 10.922,22.624 10.733,22.87C10.625,23.015 10.571,23.182 10.547,23.354L8.524,23.354C8.52,23.229 8.508,23.104 8.508,22.979C8.508,22.188 8.592,21.441 8.733,20.729L34.762,20.729C34.901,21.443 34.985,22.19 34.985,22.979C34.985,23.104 34.975,23.229 34.971,23.354L32.947,23.354ZM35.468,29.983C35.207,29.983 34.96,29.922 34.733,29.821C32.899,35.14 27.798,38.973 21.778,38.973C15.754,38.973 10.647,35.131 8.819,29.802C8.578,29.916 8.313,29.983 8.034,29.983C6.916,29.983 6.016,28.953 6.016,27.679C6.016,26.408 6.912,25.377 8.03,25.373C8.338,25.9 8.69,26.408 9.092,26.893C8.898,26.221 8.75,25.539 8.654,24.853L10.867,24.853L11.568,27.486C11.685,27.924 12.082,28.228 12.535,28.228L18.035,28.228C18.488,28.228 18.885,27.922 19.001,27.486L19.703,24.853L23.805,24.853L24.507,27.486C24.623,27.924 25.02,28.228 25.473,28.228L30.973,28.228C31.426,28.228 31.824,27.922 31.94,27.486L32.641,24.853L34.854,24.853C34.756,25.539 34.61,26.221 34.416,26.893C34.814,26.412 35.17,25.903 35.478,25.373C36.593,25.377 37.492,26.406 37.492,27.679C37.484,28.953 36.586,29.983 35.468,29.983Z" style="fill:rgb(8,41,71);fill-rule:nonzero;stroke:rgb(8,41,71);stroke-width:0.08px;"/>
    </g>
</svg>
